<svg width="546" height="610" viewBox="0 0 546 610" fill="none" xmlns="http://www.w3.org/2000/svg">
<path d="M117 115.466C117 112.409 118.684 109.601 121.38 108.161L158.179 88.5068C160.037 87.5143 161.655 86.1266 162.919 84.4413V84.4413C163.637 83.4842 164.233 82.4414 164.693 81.337L165.442 79.5402C166.14 77.8633 166.5 76.0647 166.5 74.2481V74.2481C166.5 72.1121 166.003 70.0053 165.047 68.0948L164 66L133.398 8.09215C132.16 5.74801 130.266 3.81449 127.948 2.52689V2.52689C127.317 2.17618 126.659 1.87602 125.98 1.62923L123.701 0.800495C122.245 0.27091 120.707 0 119.158 0V0C117.729 0 116.309 0.230388 114.953 0.682297L113.421 1.193C111.812 1.72939 110.266 2.44028 108.812 3.31297L103.5 6.5L94.5 12L75.7788 21.6006C75.267 21.8631 74.7 22 74.1248 22H72.587C71.4344 22 70.5 21.0656 70.5 19.913V19.913C70.5 19.0596 69.9804 18.2922 69.1881 17.9752L66.6073 16.9429C65.8758 16.6503 65.0952 16.5 64.3074 16.5H61.5832C60.2012 16.5 58.8258 16.6926 57.4969 17.0723L55.2353 17.7185C53.4643 18.2245 51.9171 19.316 50.8465 20.8149V20.8149C50.2866 21.5987 49.8703 22.4757 49.6168 23.4051L48.8716 26.1375C48.625 27.0418 48.5 27.9749 48.5 28.9123V28.9123C48.5 32.9432 46.2023 36.6215 42.5799 38.3896L8.10898 55.2147C7.0392 55.7368 6.02638 56.3684 5.08673 57.0992L3.72981 58.1546C2.59107 59.0403 1.66513 60.1697 1.01996 61.4601V61.4601C0.349206 62.8016 0 64.2808 0 65.7807V68.7119C0 72.1881 0.82087 75.6153 2.39578 78.7143L30.5022 134.021C30.8336 134.673 31.2135 135.299 31.6386 135.894L31.8862 136.241C32.9495 137.729 34.3224 138.97 35.9106 139.877V139.877C36.6351 140.291 37.3987 140.633 38.1903 140.897L40.6731 141.724C42.2143 142.238 43.8282 142.5 45.4528 142.5V142.5C47.464 142.5 49.455 142.099 51.3092 141.319L83 128V128C88.4875 124.982 95.3836 127.065 98.2822 132.617L151.028 233.638C151.672 234.872 152.501 236.001 153.486 236.986L154.123 237.623C156.285 239.785 159.218 241 162.276 241V241C165.003 241 167.642 240.033 169.724 238.272L169.853 238.163C171.889 236.44 173.268 234.069 173.76 231.448V231.448C174.239 228.891 173.845 226.246 172.639 223.94L117.942 119.303C117.323 118.118 117 116.802 117 115.466V115.466Z" fill="#212322"/>
<path fill-rule="evenodd" clip-rule="evenodd" d="M377.351 377.898C378.158 377.203 379.121 376.733 380.184 376.657C426.072 373.396 464.462 347.161 480.042 311.236C486.288 313.638 493.423 315 501 315C525.577 315 545.5 300.673 545.5 283C545.5 265.327 525.577 251 501 251C495.236 251 489.728 251.788 484.673 253.222C472.969 207.882 426.295 174 370.5 174C305.883 174 253.5 219.443 253.5 275.5C253.5 325.867 295.788 367.665 351.243 375.632C351.464 375.663 351.663 375.784 351.8 375.96C352.19 376.464 352.624 376.945 353.099 377.399C353.137 377.435 353.111 377.5 353.058 377.5V377.5C353.026 377.5 353 377.526 353 377.558V385.521C353 387.885 351.957 390.129 350.148 391.653L338.664 401.334C336.56 403.107 334.643 405.09 332.944 407.253L327.285 414.456C325.434 416.812 323.84 419.359 322.531 422.054L318.205 430.96C316.74 433.976 315.642 437.156 314.933 440.434L312.949 449.613C312.318 452.529 312 455.505 312 458.489V472.627C312 475.534 312.302 478.434 312.901 481.279L314.301 487.93C315.406 493.18 318.114 497.958 322.051 501.603V501.603C326.84 506.037 333.126 508.5 339.652 508.5H386.618C389.201 508.5 391.777 508.262 394.316 507.789L416.51 503.651C418.832 503.218 421.114 502.589 423.331 501.773L429.549 499.482C435.744 497.199 441.245 493.355 445.516 488.32V488.32C450.397 482.568 453.47 475.504 454.352 468.012L454.753 464.598C455.571 457.643 454.638 450.594 452.037 444.092L447.879 433.697C446.631 430.577 445.013 427.618 443.06 424.883L436.769 416.077C434.599 413.039 432.034 410.304 429.142 407.945L420.402 400.815C416.499 397.631 412.055 395.175 407.283 393.564L396.701 389.993C395.24 389.5 393.721 389.198 392.183 389.094L380.96 388.339C377.887 388.132 375.5 385.579 375.5 382.499V381.526C375.5 380.115 376.281 378.819 377.351 377.898V377.898ZM388.195 218.205C388.645 219.02 387.931 220 387 220V220C377.887 220 370.5 229.85 370.5 242C370.5 254.15 377.887 264 387 264V264C389.147 264 391.312 266.069 390.419 268.02C385.691 278.347 377.674 285.36 368.122 286.1C351.551 287.384 336.637 269.302 334.809 245.712C332.982 222.123 344.933 201.959 361.504 200.676C372.057 199.858 381.938 206.894 388.195 218.205ZM447.607 218.086C439.146 219.136 432.5 229.665 432.5 242.5C432.5 256.031 439.887 267 449 267V267C450.308 267 451.458 268.262 450.956 269.47C446.767 279.543 439.809 286.149 431.875 286.224C418.828 286.348 408.083 268.76 407.875 246.94C407.668 225.12 418.077 207.33 431.125 207.206C437.484 207.146 443.296 211.293 447.607 218.086ZM338.5 336C338.5 342.627 335.366 348 331.5 348C327.634 348 324.5 342.627 324.5 336C324.5 329.373 327.634 324 331.5 324C335.366 324 338.5 329.373 338.5 336ZM354 356C357.59 356 360.5 345.031 360.5 331.5C360.5 317.969 357.59 307 354 307C350.41 307 347.5 317.969 347.5 331.5C347.5 345.031 350.41 356 354 356ZM381.5 329.5C381.5 344.136 378.59 356 375 356C371.41 356 368.5 344.136 368.5 329.5C368.5 314.864 371.41 303 375 303C378.59 303 381.5 314.864 381.5 329.5ZM396 356C399.038 356 401.5 344.136 401.5 329.5C401.5 314.864 399.038 303 396 303C392.962 303 390.5 314.864 390.5 329.5C390.5 344.136 392.962 356 396 356ZM423.5 331C423.5 342.046 421.038 351 418 351C414.962 351 412.5 342.046 412.5 331C412.5 319.954 414.962 311 418 311C421.038 311 423.5 319.954 423.5 331ZM439 340C441.485 340 443.5 336.418 443.5 332C443.5 327.582 441.485 324 439 324C436.515 324 434.5 327.582 434.5 332C434.5 336.418 436.515 340 439 340Z" fill="#212322"/>
<path d="M469.5 457.17C469.5 453.117 468.522 449.123 466.65 445.528L458.522 429.923C457.522 428.003 457 425.87 457 423.704V422.257C457 418.66 458.797 415.302 461.79 413.307L462.816 412.622C463.914 411.891 465.204 411.5 466.524 411.5V411.5C468.418 411.5 470.224 412.304 471.491 413.712L474 416.5L475.758 419.012C476.918 420.668 478.196 422.239 479.582 423.712L480.902 425.115C483.948 428.351 486.461 432.05 488.347 436.074L490.412 440.479C492.126 444.135 493.227 448.047 493.673 452.06L494.273 457.458C494.745 461.709 493.857 466.001 491.734 469.715L490.35 472.137C489.466 473.684 488.184 474.966 486.637 475.85V475.85C483.74 477.506 480.207 477.604 477.223 476.112L474 474.5V474.5C471.223 472.957 469.5 470.029 469.5 466.852V457.17Z" fill="#212322"/>
<path d="M358 537.905C358 535.705 357.229 533.574 355.82 531.884V531.884C354.033 529.74 351.386 528.5 348.595 528.5H347.568C344.935 528.5 342.38 529.396 340.323 531.041L339.411 531.772C337.184 533.553 335.513 535.935 334.598 538.637L326 564L322.277 579.308C321.77 581.388 320.653 583.27 319.069 584.71L318.784 584.969C316.992 586.598 314.659 587.5 312.238 587.5V587.5C311.416 587.5 310.597 587.396 309.801 587.19L282 580L272 576L265.413 574.079C261.924 573.061 258.184 573.348 254.89 574.885V574.885C253.309 575.623 251.869 576.631 250.635 577.865L248.918 579.582C247.05 581.45 246 583.985 246 586.627V586.627C246 588.815 246.72 590.942 248.049 592.679L249.135 594.099C251.309 596.942 254.413 598.93 257.905 599.713L272.457 602.98C275.476 603.658 278.562 604 281.656 604H323.03C326.643 604 330.232 604.693 333.587 606.035V606.035C335.19 606.676 336.852 607.17 338.544 607.509L338.98 607.596C341.969 608.194 345.042 608.257 348.054 607.781L351.528 607.232C352.5 607.079 353.434 606.74 354.277 606.234V606.234C356.587 604.848 358 602.352 358 599.659V598.949C358 596.73 357.173 594.59 355.68 592.948L354.56 591.716C353.567 590.623 352.14 590 350.663 590V590C349.589 590 348.53 589.665 347.657 589.041V589.041C346.303 588.074 345.5 586.513 345.5 584.849V583.465C345.5 582.824 345.579 582.186 345.734 581.564L349 568.5L353 555.5L356.904 545.74C357.628 543.93 358 541.998 358 540.049V537.905Z" fill="#212322"/>
<path d="M412.453 525.047C410.562 526.938 409.5 529.502 409.5 532.177V532.363C409.5 535.022 410.506 537.583 412.315 539.531L413.689 541.011C415.212 542.651 416.366 544.599 417.074 546.722L420 555.5L423.5 568.5L426.131 578.366C427.008 581.655 426.553 585.158 424.864 588.114V588.114C423.965 589.687 422.745 591.054 421.284 592.125L419.428 593.486C417.273 595.066 416 597.579 416 600.251V600.251C416 603.197 417.546 605.928 420.073 607.444L421.036 608.022C422.648 608.989 424.493 609.5 426.373 609.5H502.475C509.05 609.5 515.516 607.824 521.263 604.631L522.408 603.996C524.791 602.672 526.978 601.022 528.906 599.094L535.081 592.919C536.63 591.37 537.5 589.269 537.5 587.079V587.079C537.5 584.795 536.555 582.614 534.889 581.052L533.318 579.579C530.865 577.28 527.629 576 524.267 576H520.571C518.863 576 517.159 576.194 515.494 576.578L505 579L487.5 583.5L470.686 586.681C469.564 586.893 468.426 587 467.284 587H464.192C458.633 587 453.625 583.638 451.519 578.492V578.492C450.846 576.846 450.5 575.086 450.5 573.308V570.131C450.5 566.41 449.804 562.721 448.448 559.256L446 553L442.719 543.157C441.25 538.75 439.06 534.616 436.237 530.926L434 528L430.665 524.152C428.655 521.832 425.737 520.5 422.668 520.5V520.5C420.917 520.5 419.193 520.935 417.651 521.765L414.803 523.298C413.939 523.764 413.147 524.353 412.453 525.047V525.047Z" fill="#212322"/>
<path d="M300.162 376.641C301.385 378.544 302.76 380.345 304.273 382.026L311.32 389.855C314.011 392.845 315.5 396.726 315.5 400.749V402.596C315.5 406.331 313.817 409.868 310.918 412.223V412.223C308.707 414.019 305.945 415 303.096 415H302.05C299.081 415 296.175 414.139 293.685 412.52L290.927 410.728C288.656 409.251 286.625 407.435 284.905 405.341L276 394.5L267 382.5L258 372.5L253.411 366.381C250.492 362.49 246.92 359.135 242.854 356.467L233 350L221 339.5L211.5 329L203 321.5L193 312.5L191.197 310.497C189.406 308.507 187.373 306.749 185.145 305.264V305.264C182.398 303.432 179.95 301.188 177.888 298.61L176.143 296.429C175.382 295.478 174.697 294.469 174.092 293.411V293.411C172.066 289.865 171 285.852 171 281.767V280.026C171 276.373 171.667 272.75 172.967 269.336L175 264V264C178.688 256.932 185.999 252.5 193.971 252.5H198.498C201.454 252.5 204.366 253.223 206.979 254.606V254.606C209.935 256.172 212.401 258.524 214.103 261.404L216.409 265.307C217.463 267.092 218.237 269.028 218.703 271.048L219.803 275.814C220.556 279.075 219.715 282.5 217.537 285.041V285.041C215.9 286.95 215 289.383 215 291.898V292.252C215 295.871 216.704 299.278 219.598 301.449L221 302.5L233 312.5L249 325L255.091 330.753C257.026 332.58 258.783 334.587 260.338 336.747L263.916 341.717C265.964 344.561 268.36 347.138 271.048 349.387L291.5 366.5L294.309 369.309C296.43 371.43 298.318 373.773 299.94 376.296L300.162 376.641Z" fill="#212322"/>
</svg>
